<svg fill="#003478" viewBox="0 0 101.334 12.236" xmlns="http://www.w3.org/2000/svg"><path d="m.076.24h2.554l.904 7.84 3.588-7.84h2.634l-5.73 11.838h-2.41zm11.727 0h2.492l-2.08 11.76h-2.5zm5.27 0h7.062l-.397 2.27h-4.634l-.404 2.35h4.412l-.397 2.24h-4.4l-.477 2.666h4.634l-.38 2.222h-7.077l2.057-11.748zm8.855 0h2.603l.174 6.776 2.808-6.776h2.364l.413 6.776 2.57-6.776h2.46l-4.745 11.838h-2.35l-.46-6.998-2.904 6.998h-2.38l-.554-11.838zm17.17 7.727c0-.73.095-1.476.238-2.238.556-3.205 1.777-5.633 5.332-5.633 3.507 0 4.432 1.904 4.432 4.204 0 .73-.095 1.5-.222 2.27-.57 3.173-1.777 5.57-5.428 5.57-3.412 0-4.364-1.9-4.364-4.173zm7.252-1.555c.127-.698.206-1.317.206-1.873 0-1.222-.43-2.047-1.904-2.047-1.92 0-2.428 1.333-2.8 3.555l-.223 1.857c0 1.222.444 2.032 1.952 2.032 1.9 0 2.38-1.302 2.777-3.523zm5.728-6.172h7.077l-.412 2.27h-4.586l-.46 2.54h4.364l-.38 2.25h-4.364l-.84 4.697h-2.477zm9.22 0h7.078l-.413 2.27h-4.586l-.46 2.54h4.363l-.38 2.25h-4.363l-.842 4.697h-2.475zm9.22 0h7.062l-.396 2.27h-4.634l-.413 2.35h4.412l-.4 2.24h-4.4l-.476 2.666h4.634l-.38 2.222h-7.087zm11.997 7.822h-1.5l-.698 3.936h-2.437l2.08-11.758h3.555c3.158 0 4.063 1.27 4.063 2.983 0 .365-.048.746-.1 1.158-.317 1.746-1.047 3.015-2.586 3.5l1.095 4.126h-2.46l-1-3.936zm.937-2.174c.856 0 1.35-.365 1.57-1.556.03-.238.047-.476.047-.65 0-.793-.38-1.254-1.666-1.254h-1.396l-.603 3.46h2.047zm4.2 5.046 1.364-1.888c.587.428 1.698 1.016 3.253 1.016 1.2 0 1.714-.556 1.714-1.477 0-.825-.54-1.08-2.095-1.698-1.697-.682-2.54-1.57-2.54-2.983 0-2.873 1.984-3.8 4.285-3.8 1.682 0 2.904.38 3.634.825l-1.206 2.095c-.508-.3-1.46-.65-2.54-.65-1.095 0-1.698.397-1.698 1.286 0 .682.413.936 1.54 1.38 2.126.857 3.1 1.603 3.1 3.206 0 2.714-1.666 3.903-4.22 3.903-2.062 0-3.634-.492-4.602-1.206z"/></svg>