<svg fill="#003478" viewBox="0 0 283.608 25.046" xmlns="http://www.w3.org/2000/svg"><path d="m.194 23.854 1.842-3.74c.687.3 1.918.696 3.222.577 1.137-.103 1.454-.64 1.37-1.58-.058-.65-.463-1.1-2.382-2.573-1.551-1.192-2.746-2.438-2.946-4.508-.27-2.886 1.113-5.494 5.3-5.868 1.953-.174 2.895-.086 4.38.32l-1.414 4.075a6.7 6.7 0 0 0 -2.701-.319c-.778.07-1.25.55-1.182 1.318.06.674.623 1.185 2.122 2.356 1.756 1.372 2.948 2.675 3.13 4.77.25 2.864-.908 5.48-5.392 5.888-2.7.246-4.38-.3-5.37-.715zm13.036-18.048 4.345-.362.37 6.028.197 3.595.777-3.65 1.462-6.2 3.565-.28.72 6.098.343 3.486.605-3.56 1.166-6.241 4.054-.302-3.88 18.287-4.367.34-.687-5.567-.383-3.58-.807 3.627-1.356 5.78-4.438.37zm20.292-1.584 9.7-.66-.304 4-5.36.36-.2 2.992 5.107-.344-.3 3.966-5.094.345-.24 3.2 5.326-.362-.276 3.892-9.585.67 1.238-18.034zm12.5-.84 9.702-.58-.337 3.987-5.363.315-.235 3 5.1-.302-.332 3.963-5.097.303-.267 3.186 5.328-.318-.308 3.9-9.588.6 1.405-18.034zm14.766 3.118-3.56.194.342-3.987 11.54-.595-.37 3.984-3.585.177-1.254 14.02-4.324.23zm14.975-4.7 4.573-.2c4.965-.2 6.317 1.957 6.43 5.12.04 1.135-.057 2.468-.222 3.948-.57 5.677-1.427 8.65-6.478 8.857l-6.043.26zm4.056 14.044c1.672-.07 1.88-.898 2.32-5.17.16-1.505.24-2.596.2-3.368-.056-1.424-.537-1.9-2.123-1.825l-.513.02-1.03 10.4 1.14-.047zm10.328-14.6 9.713-.298-.453 3.976-5.368.16-.32 2.982 5.11-.164-.447 3.952-5.1.155-.36 3.177 5.333-.163-.42 3.88-9.598.3 1.908-17.976zm15.683-.5 4.747-.104 2.132 17.908-4.474.093-.217-2.12-3.463.08-.673 2.143-4.28.114 6.228-18.113zm1.815 12.087-.23-2.7-.176-2.364-.676 2.36-.86 2.75 1.942-.045zm9.492-12.261 4.332-.064-1.803 14.06 4.922-.064-.488 3.87-9.2.135zm8.38 16.7 2.145-3.572c.66.356 1.85.853 3.16.844 1.14-.008 1.5-.517 1.495-1.46-.004-.652-.37-1.134-2.157-2.763-1.444-1.318-2.528-2.66-2.548-4.738-.027-2.898 1.565-5.382 5.775-5.405 1.958-.01 2.9.156 4.334.683l-1.747 3.943c-.586-.263-1.564-.55-2.663-.543-.78.004-1.3.442-1.286 1.215.004.676.522 1.233 1.916 2.525 1.634 1.514 2.712 2.912 2.72 5.013.01 2.875-1.36 5.385-5.858 5.418-2.708.02-4.336-.663-5.285-1.16zm23.183-16.93 4.747.03 1.626 17.96-4.474-.033-.156-2.126-3.463-.016-.733 2.123-4.28-.007zm1.473 12.133-.155-2.706-.1-2.368-.743 2.34-.936 2.725 1.943.01zm9.844-12 4.43.06 1.314 5.118.567 2.7 1.228-7.758 4.037.074-2.868 17.848-3.845-.064-1.608-5.967-.665-2.836-1.355 8.75-3.967-.047 2.732-17.871zm14.757.25 4.575.107c4.967.123 6.175 2.365 6.084 5.528-.033 1.135-.217 2.46-.48 3.925-.94 5.628-1.987 8.538-7.04 8.416l-6.046-.134 2.907-17.831zm3.132 14.278c1.673.04 1.934-.774 2.65-5.008.258-1.5.407-2.575.428-3.348.037-1.425-.413-1.92-2-1.96l-.513-.013-1.706 10.3 1.14.027zm11.724 2.938 2.296-3.478c.643.384 1.813.93 3.12.978 1.14.04 1.52-.453 1.556-1.394.024-.652-.32-1.15-2.038-2.853-1.387-1.378-2.413-2.765-2.344-4.842.097-2.897 1.794-5.3 6-5.154 1.957.073 2.88.28 4.302.868l-1.922 3.876a6.69 6.69 0 0 0 -2.638-.656c-.78-.03-1.3.387-1.337 1.16-.025.676.47 1.254 1.807 2.605 1.568 1.582 2.586 3.025 2.503 5.125-.113 2.872-1.6 5.322-6.085 5.163-2.707-.096-4.304-.848-5.23-1.385zm13.867-4.375 2.178-11.852 4.353.2-2.18 11.653c-.377 1.942-.036 2.464 1.15 2.517 1.138.05 1.547-.4 1.93-2.38l2.203-11.65 4.23.205-2.27 11.835c-.807 4.096-1.97 6.113-6.367 5.917-5.002-.224-6.007-2.336-5.23-6.438zm16.925-11.158 5.353.287.063 6.366-.024 3.047 1.168-2.983 2.632-6.212 5.353.32-3.612 17.712-4.058-.237 1.975-9.806-.977 2.556-2.955 7.14-2.68-.147-.094-7.286.068-2.633-1.932 9.815-3.72-.192 3.442-17.746zm17.722 1.023 5.35.35-.012 6.366-.06 3.046 1.203-2.97 2.705-6.18 5.35.383-3.82 17.67-4.055-.285 2.1-9.782-1.007 2.545-3.04 7.104-2.68-.18-.01-7.287.1-2.632-2.047 9.8-3.72-.235 3.65-17.705zm17.713 1.232 9.693.762-.883 3.903-5.367-.426-.644 2.93 5.104.405-.875 3.88-5.092-.402-.703 3.12 5.323.42-.84 3.8-9.58-.737 3.856-17.66zm14.856 13.363-.92-.08-1.287 5.684-4.15-.346 4.002-17.628 5.003.427c4.344.378 5.486 1.894 5.237 4.636-.055.602-.184 1.22-.347 1.933-.526 2.28-1.423 4.1-3.428 4.955l.604 6.626-4.244-.374-.47-5.835zm1.293-3.67c1.117.097 1.55-.108 2-2.007l.186-1.002c.1-1.13-.317-1.4-1.535-1.516l-.973-.084-1.023 4.494 1.335.115zm6.862 5.242 4.547.423-1.163 4.84-4.532-.42 1.15-4.843z"/></svg>